# xmcd
#
# Track frame offsets: 
#        150
#        11907
#        25225
#        37100
#        47957
#        57317
#        69580
#        81712
#        92820
#        103855
#        122520
#        134385
#        146107
#        157530
#        169335
#        180545
#        192765
#        204377
#        214022
#        228797
#        246150
#        261020
#
# Disc length: 3807 seconds
#
# Revision: 1
# Processed by: cddbd v1.5.2PL0 Copyright (c) Steve Scherf et al.
# Submitted via: ExactAudioCopy v1.0b3
#
DISCID=3d0edd16
DTITLE=Bobby "Blue" Bland - The Definitive Collection
DYEAR=2007
DGENRE=Blues
TTITLE0=I Smell Trouble
TTITLE1=Farther Up the Road
TTITLE2=Little Boy Blue
TTITLE3=I'll Take Care of You
TTITLE4=Lead Me On
TTITLE5=Cry, Cry, Cry
TTITLE6=I Pity the Fool
TTITLE7=Don't Cry No More
TTITLE8=Who Will the Next Fool Be?
TTITLE9=Stormy Monday Blues
TTITLE10=Turn On Your Love Light
TTITLE11=Yield Not to Temptation
TTITLE12=Call On Me
TTITLE13=That's The Way Love Is
TTITLE14=Ain't Nothing You Can Do
TTITLE15=Share Your Love with Me
TTITLE16=Good Time Charlie, Part 1
TTITLE17=Poverty
TTITLE18=Chains of Love
TTITLE19=Ain't No Love in the Heart of the City
TTITLE20=I Wouldn't Treat a Dog (the Way You Treated Me)
TTITLE21=Let the Good Times Roll (Live Duet with B.B. King)
EXTD=
EXTT0=
EXTT1=
EXTT2=
EXTT3=
EXTT4=
EXTT5=
EXTT6=
EXTT7=
EXTT8=
EXTT9=
EXTT10=
EXTT11=
EXTT12=
EXTT13=
EXTT14=
EXTT15=
EXTT16=
EXTT17=
EXTT18=
EXTT19=
EXTT20=
EXTT21=
PLAYORDER=
